<svg width="24" height="24"
   xmlns="http://www.w3.org/2000/svg">
   <path fill="#fff" style="fill:#000;fill-opacity:1;stroke-width:.999999" d="M7 2h1v1H7zM8 3h1v1H8zM19 7h1v1h-1z"/>
   <path style="fill:#d62f0d;fill-opacity:1;stroke:none;stroke-width:1.22474;stroke-opacity:1" d="M9 4h6v2H9z"/>
   <path style="fill:#d62f0d;fill-opacity:1;stroke:none;stroke-width:1.11803;stroke-opacity:1" d="M7 6h10v2H7zM7 18h10v2H7z"/>
   <path style="fill:#d62f0d;fill-opacity:1;stroke:none;stroke-width:2.41521;stroke-opacity:1" d="M5 8h14v10H5z"/>
   <path fill="#fff" style="fill:#feeee0;fill-opacity:1;stroke:none;stroke-width:1.99999;stroke-opacity:1" d="M6 15h2v2H6zM9 12h2v2H9zM6 9h2v2H6zM13 15h2v2h-2zM16 12h2v2h-2zM13 9h2v2h-2z"/>
   <path fill="#fff" style="fill:#000;fill-opacity:1;stroke-width:1.41421" d="M3 5h1v2H3z"/>
   <path fill="#fff" style="fill:#000;fill-opacity:1;stroke-width:.999999" d="M4 7h1v1H4z"/>
   <path fill="#fff" style="fill:#000;fill-opacity:1;stroke-width:1.41421" d="M20 5h1v2h-1z"/>
   <path fill="#fff" style="fill:#000;fill-opacity:1;stroke-width:1.73203" d="M3 19h1v3H3z"/>
   <path style="fill:#d62f0d;fill-opacity:1;stroke:none;stroke-width:1.22474;stroke-opacity:1" d="M9 20h6v2H9z"/>
   <path fill="#fff" style="fill:#000;fill-opacity:1;stroke-width:3.74164" d="M11.5 8h1v14h-1z"/>
   <path fill="#fff" style="fill:#000;fill-opacity:1;stroke-width:.999999" d="M15 3h1v1h-1zM16 2h1v1h-1zM4 18h1v1H4zM19 18h1v1h-1z"/>
   <path fill="#fff" style="fill:#000;fill-opacity:1;stroke-width:1.73203" d="M20 19h1v3h-1z"/>
   <path fill="#fff" style="fill:#000;fill-opacity:1;stroke-width:.999999" d="M19 12.5h1v1h-1zM4 12.5h1v1H4zM20 13.5h1v1h-1zM3 13.5h1v1H3z"/>
   <path fill="#fff" style="fill:#000;fill-opacity:1;stroke-width:1.4142" d="M21 14.5h1v2h-1zM2 14.5h1v2H2z"/>
   <path fill="#fff" style="fill:#feeee0;fill-opacity:1;stroke-width:.999999" d="M15 11h1v1h-1zM15 14h1v1h-1zM8 11h1v1H8zM8 14h1v1H8z"/>
</svg>